<?xml version="1.0" standalone="no"?>
<!DOCTYPE svg PUBLIC "-//W3C//DTD SVG 20010904//EN"
 "http://www.w3.org/TR/2001/REC-SVG-20010904/DTD/svg10.dtd">
<svg version="1.0" xmlns="http://www.w3.org/2000/svg"
 width="589.000000pt" height="587.000000pt" viewBox="0 0 589.000000 587.000000"
 preserveAspectRatio="xMidYMid meet">

<g transform="translate(0.000000,587.000000) scale(0.100000,-0.100000)"
fill="#000000" stroke="none">
<path d="M1980 5179 c-149 -68 -234 -190 -276 -398 -22 -110 -21 -1276 2
-2366 9 -420 11 -465 29 -542 17 -74 69 -173 109 -208 12 -11 31 -40 40 -65
23 -58 48 -90 132 -170 37 -36 86 -82 107 -103 22 -20 43 -37 48 -37 21 0 6
30 -33 68 -24 23 -70 67 -104 99 -59 57 -95 101 -107 135 -12 32 50 -1 77 -42
14 -22 68 -83 119 -137 52 -54 99 -108 106 -121 13 -24 31 -21 31 5 0 8 -31
47 -68 87 -153 161 -196 214 -158 200 23 -9 264 -253 271 -274 6 -20 25 -26
38 -14 13 14 -26 63 -127 161 -99 96 -126 130 -92 117 7 -3 47 -38 88 -77 40
-40 93 -90 117 -112 24 -22 48 -52 53 -67 12 -34 38 -37 38 -5 0 25 -53 83
-173 192 -36 33 -66 62 -66 65 -1 3 9 6 22 5 38 0 212 -167 247 -235 15 -30
25 -39 32 -32 21 21 -16 77 -118 179 -65 64 -98 103 -90 106 8 3 66 -45 135
-111 93 -89 121 -121 116 -134 -5 -13 -2 -18 8 -18 23 0 27 12 12 46 -11 28
-63 81 -185 192 -35 32 -42 43 -33 53 10 10 24 2 69 -36 121 -104 159 -148
178 -208 7 -22 26 -13 26 12 0 42 -70 121 -224 253 -6 5 -6 12 2 20 16 16 221
-174 229 -214 6 -30 26 -33 31 -5 5 26 -37 78 -136 166 -82 74 -92 86 -79 99
13 13 20 11 59 -16 64 -44 125 -106 148 -152 19 -37 40 -53 40 -30 0 44 -93
155 -176 212 -34 23 -45 48 -21 48 31 0 150 -108 183 -165 17 -31 37 -9 20 23
-15 30 -115 128 -158 156 -16 10 -28 24 -28 32 0 8 40 -13 96 -51 93 -63 114
-74 114 -57 0 13 -38 44 -117 96 -64 42 -93 76 -63 76 6 0 10 -4 10 -9 0 -5
34 -32 76 -61 54 -36 80 -48 87 -41 6 6 9 12 6 14 -2 2 -33 23 -69 47 -81 53
-99 76 -100 119 l0 35 37 -43 c38 -44 87 -73 110 -64 20 8 15 23 -7 23 -12 0
-43 22 -70 50 -49 48 -50 50 -50 110 0 47 6 73 30 120 34 67 36 80 15 80 -9 0
-18 -12 -21 -30 -14 -68 -21 -20 -23 151 -1 183 4 253 19 244 17 -11 22 19 5
31 -24 18 -14 38 20 39 40 0 42 21 4 29 -24 5 -30 9 -22 17 8 8 20 9 42 1 22
-8 32 -8 37 0 8 13 -23 38 -48 38 -19 0 -24 15 -9 24 4 3 22 1 39 -3 22 -7 34
-6 41 3 14 16 4 26 -25 26 -13 0 -25 4 -28 8 -10 16 10 31 38 29 16 -1 31 4
33 11 3 7 -4 12 -18 12 -21 0 -22 1 -4 20 10 11 24 20 32 20 7 0 16 6 19 14 7
19 70 43 131 52 34 4 69 1 114 -12 173 -48 260 -144 315 -354 15 -54 15 -115
11 -1110 -1 -224 34 -443 81 -513 50 -75 121 -117 227 -136 119 -21 145 -20
216 3 50 16 68 19 65 10 -14 -36 19 -17 76 43 55 57 79 74 185 124 125 60 143
73 124 92 -7 7 -15 6 -28 -5 -10 -9 -60 -36 -111 -60 -84 -40 -93 -42 -90 -24
2 14 28 32 89 62 84 41 154 97 144 114 -3 5 -27 -7 -53 -27 -48 -37 -151 -88
-159 -79 -10 10 9 25 80 64 84 47 153 112 143 137 -5 14 -14 9 -50 -28 -37
-38 -137 -107 -157 -107 -3 0 -4 10 -2 23 3 14 20 31 46 45 78 41 190 163 166
178 -7 4 -16 -1 -22 -12 -23 -44 -169 -165 -182 -152 -3 3 -2 18 1 35 5 24 16
35 55 54 61 28 167 135 151 151 -8 8 -23 -3 -56 -38 -24 -28 -67 -62 -95 -77
l-51 -28 0 24 c0 18 15 34 59 66 96 67 185 181 141 181 -5 0 -10 -4 -10 -9 0
-16 -101 -121 -147 -152 l-43 -30 0 28 c0 22 8 33 32 47 88 51 194 161 178
185 -5 10 -27 -7 -78 -60 -39 -41 -84 -82 -101 -92 l-31 -18 0 33 c0 26 6 37
27 50 16 9 64 50 108 91 55 52 77 78 70 86 -7 7 -35 -13 -89 -65 -92 -87 -116
-103 -116 -77 0 10 16 29 36 42 47 33 154 149 179 196 17 33 18 38 4 49 -13 9
-13 15 -2 36 7 14 13 31 13 38 0 25 -25 6 -45 -34 -11 -21 -56 -75 -99 -119
-65 -65 -81 -76 -84 -61 -3 13 15 37 60 80 50 47 75 82 106 146 53 110 60 133
36 128 -10 -2 -22 -18 -28 -38 -19 -60 -62 -134 -111 -188 -26 -29 -51 -52
-56 -52 -20 0 -7 28 27 61 77 74 148 200 167 297 12 58 -18 37 -36 -25 -19
-68 -75 -165 -129 -225 -38 -42 -38 -42 -38 -15 0 17 17 49 44 84 86 112 163
290 137 316 -7 7 -12 6 -14 -4 -28 -100 -86 -220 -133 -275 l-33 -39 -1 42 c0
29 7 50 23 70 84 102 169 297 146 334 -9 15 -13 6 -23 -48 -3 -17 -18 -58 -33
-90 -28 -57 -99 -173 -107 -173 -2 0 -2 17 -1 38 1 22 16 59 37 92 67 108 92
177 92 260 -1 99 -24 173 -79 251 -57 81 -68 99 -58 98 4 0 35 -31 68 -69 61
-69 104 -153 105 -202 0 -26 9 -35 22 -23 10 10 -12 99 -34 145 -13 25 -56 80
-97 123 -120 125 -67 114 60 -14 67 -66 101 -78 60 -20 -28 39 -139 140 -168
154 -12 5 -23 19 -23 29 0 17 6 15 48 -13 26 -18 66 -48 90 -67 24 -19 45 -32
48 -29 10 9 -48 67 -109 108 -34 23 -64 43 -66 45 -6 5 -10 54 -5 54 13 0 74
-36 121 -71 57 -43 63 -45 63 -26 0 18 -60 65 -133 107 -31 17 -57 38 -57 47
0 9 5 11 13 7 66 -39 143 -90 145 -96 6 -14 22 -9 22 6 0 13 -97 84 -157 115
-13 6 -23 18 -23 26 0 10 25 2 87 -30 48 -24 90 -41 93 -39 9 10 -41 44 -112
77 -54 26 -68 37 -68 55 0 12 2 22 5 22 3 0 41 -18 85 -40 90 -45 90 -45 90
-26 0 8 -40 33 -90 58 -72 35 -89 47 -90 65 0 22 2 22 68 -13 37 -20 73 -41
80 -46 8 -7 16 -8 23 -1 13 13 -22 44 -96 83 -72 39 -78 43 -73 65 2 14 16 10
85 -26 80 -42 112 -47 80 -11 -9 10 -52 35 -96 56 -53 26 -77 44 -74 53 8 19
25 16 88 -17 65 -34 75 -36 75 -15 0 16 -90 71 -132 81 -19 4 -28 12 -28 25 0
25 9 24 81 -11 58 -28 79 -31 79 -10 0 5 -38 28 -85 50 -59 28 -83 44 -79 54
4 12 19 9 76 -15 83 -34 78 -33 78 -14 0 15 -107 75 -135 75 -9 0 -15 9 -15
25 l0 25 64 -36 c40 -22 67 -31 71 -24 10 15 0 25 -51 51 -26 13 -55 28 -65
34 -11 5 -19 20 -19 33 l0 22 43 -21 c23 -12 54 -30 69 -40 32 -23 38 -24 38
-4 0 16 -115 95 -137 95 -7 0 -13 11 -13 25 0 28 9 27 83 -17 27 -16 53 -26
58 -22 17 10 -21 44 -83 75 -32 16 -58 36 -58 44 0 20 -1 20 66 -20 64 -39 74
-42 74 -21 0 7 -32 33 -70 56 -56 34 -70 47 -70 67 0 21 3 23 23 17 12 -3 41
-18 65 -31 24 -14 46 -23 49 -20 14 15 -10 36 -76 67 -39 19 -71 40 -71 47 0
10 8 10 38 -2 20 -9 48 -23 60 -31 13 -9 26 -13 29 -10 15 14 -13 40 -72 67
-47 21 -65 35 -65 48 0 16 5 18 35 11 19 -4 53 -17 75 -29 39 -20 40 -20 40
-1 0 23 -26 39 -104 60 -33 9 -62 22 -64 28 -6 18 17 14 83 -13 71 -29 65 -28
65 -11 0 13 -90 58 -142 71 -25 6 -45 32 -34 43 7 7 95 -19 102 -29 8 -14 24
-10 24 6 0 19 -71 55 -108 55 -20 0 -35 8 -45 23 -52 80 -150 135 -257 144
-128 11 -308 -44 -371 -114 -95 -104 -107 -156 -109 -484 0 -142 -5 -284 -10
-315 -12 -71 -51 -152 -96 -195 -32 -31 -35 -32 -98 -26 -36 3 -91 13 -123 22
-122 33 -140 38 -198 57 -106 36 -182 74 -188 97 -3 12 -3 21 -1 21 2 0 44
-22 92 -50 98 -56 228 -104 238 -89 9 15 5 17 -81 49 -97 36 -265 135 -265
157 0 12 8 9 36 -12 46 -35 203 -115 226 -115 33 0 18 15 -44 44 -97 45 -228
135 -228 157 0 16 10 12 58 -24 85 -62 150 -93 164 -79 14 14 18 10 -57 52
-75 41 -165 111 -165 127 0 7 44 -19 97 -57 53 -39 103 -70 110 -70 33 0 4 31
-89 95 -56 39 -106 78 -112 87 -20 32 3 30 46 -4 62 -51 136 -91 153 -84 25 9
17 20 -43 53 -79 43 -162 111 -162 133 0 14 16 7 81 -36 92 -60 116 -71 131
-56 7 7 2 15 -13 24 -147 90 -199 130 -199 155 0 10 14 3 43 -19 44 -36 72
-54 133 -88 28 -16 39 -18 48 -9 8 8 8 13 -1 16 -25 9 -168 105 -195 131 -18
16 -28 36 -28 54 l0 28 47 -36 c83 -63 183 -104 183 -75 0 6 -28 24 -62 40
-84 41 -157 96 -169 128 -14 37 -3 41 29 11 31 -31 159 -98 185 -98 26 0 20
19 -10 31 -100 38 -204 112 -210 149 -4 26 -1 26 54 -14 69 -48 171 -92 185
-78 7 7 -14 23 -77 53 -98 49 -165 101 -165 130 0 25 5 24 44 -6 19 -14 60
-39 92 -55 33 -17 67 -35 76 -42 9 -7 20 -9 24 -5 12 12 -18 38 -80 69 -98 49
-150 94 -157 134 -3 19 -4 34 -2 34 3 0 23 -15 45 -34 52 -45 156 -88 181 -74
22 12 13 28 -17 28 -33 0 -118 46 -170 91 -41 36 -46 45 -45 82 0 37 1 39 10
18 27 -68 112 -134 202 -156 53 -14 27 15 -43 46 -82 37 -114 73 -135 154 -13
50 -13 62 0 98 18 53 18 57 -1 57 -8 0 -22 -17 -31 -37 l-16 -38 -8 34 c-4 19
-5 40 -2 48 3 7 0 13 -6 13 -6 0 -22 22 -35 48 -52 102 -155 166 -293 182
-111 12 -100 13 -153 -11z m168 -19 c90 -13 168 -55 221 -121 40 -48 43 -54
24 -57 -33 -5 -48 -47 -48 -136 0 -88 19 -141 91 -247 19 -28 34 -61 34 -73
-1 -33 -71 53 -119 145 -58 113 -72 198 -45 287 10 35 -21 28 -36 -8 -18 -42
-7 -161 19 -229 28 -69 98 -176 145 -220 23 -22 36 -44 36 -60 0 -25 -1 -25
-38 14 -52 54 -129 159 -158 217 -45 88 -63 211 -43 287 2 8 -4 16 -13 19 -12
2 -20 -8 -29 -38 -37 -121 72 -362 235 -520 30 -29 46 -53 46 -69 l0 -25 -31
30 c-159 152 -278 394 -279 567 0 35 -4 47 -15 47 -40 0 2 -218 68 -355 55
-113 87 -159 181 -255 64 -65 99 -120 77 -120 -4 0 -29 24 -57 53 -207 216
-305 413 -305 614 0 45 -3 54 -17 51 -51 -10 -12 -218 70 -383 49 -98 172
-256 258 -332 26 -23 50 -52 53 -63 3 -11 3 -20 1 -20 -14 0 -170 156 -228
229 -129 162 -196 328 -196 487 0 44 -3 54 -16 54 -15 0 -16 -10 -11 -87 9
-123 39 -223 99 -328 77 -134 205 -284 319 -374 15 -11 29 -32 31 -45 l5 -25
-28 20 c-75 53 -269 262 -332 356 -44 67 -107 235 -107 287 0 12 -4 36 -9 52
-5 16 -12 46 -16 67 -4 23 -11 37 -20 37 -18 0 -18 -3 -4 -55 5 -22 12 -65 15
-95 9 -112 67 -256 147 -362 60 -80 225 -252 298 -311 43 -34 69 -77 48 -77
-11 0 -315 303 -361 360 -86 107 -133 195 -144 270 -4 25 -10 50 -14 55 -4 6
-11 45 -15 88 -5 56 -10 77 -21 77 -10 0 -14 -12 -14 -37 1 -62 46 -266 70
-314 54 -106 225 -297 430 -482 46 -41 82 -78 80 -80 -9 -8 -235 180 -310 259
-156 163 -223 256 -254 348 -4 12 -10 16 -16 10 -13 -14 11 -95 44 -145 77
-117 247 -295 391 -409 118 -93 141 -114 147 -138 6 -20 2 -19 -40 11 -117 83
-452 408 -479 464 -9 19 -22 37 -30 40 -68 26 39 -123 192 -267 38 -36 92 -87
120 -113 27 -26 94 -82 148 -124 53 -42 97 -83 97 -90 0 -13 -73 39 -260 186
-52 42 -143 124 -202 183 -59 59 -110 103 -114 97 -14 -23 76 -123 207 -230
50 -41 113 -93 141 -115 27 -23 91 -72 143 -110 78 -58 115 -97 102 -111 -17
-17 -433 320 -545 441 -29 32 -49 45 -60 41 -12 -5 -9 -12 19 -41 75 -80 151
-148 305 -275 146 -121 204 -163 271 -198 23 -12 60 -71 45 -71 -13 0 -169
100 -235 150 -32 25 -80 61 -106 80 -112 81 -160 121 -224 189 -69 71 -87 83
-87 58 0 -23 202 -212 278 -262 39 -25 74 -49 77 -55 9 -15 206 -145 280 -185
39 -20 87 -53 108 -71 20 -19 42 -34 49 -34 6 0 9 -3 5 -6 -7 -8 -102 23 -147
49 -219 122 -372 234 -535 390 -83 79 -115 101 -115 79 0 -12 159 -165 224
-216 408 -323 570 -383 1065 -391 346 -6 439 -18 631 -81 163 -54 243 -92 246
-117 1 -10 -1 -17 -4 -15 -4 2 -29 15 -57 29 -59 31 -166 71 -250 94 -33 9
-80 23 -105 30 -88 27 -179 34 -480 39 -309 5 -421 16 -535 53 -66 21 -218
101 -291 153 -55 38 -82 59 -189 144 -82 65 -196 169 -211 192 -17 26 -44 32
-44 11 0 -18 138 -152 235 -228 44 -35 107 -84 139 -110 67 -54 217 -140 307
-176 135 -54 301 -72 669 -73 241 0 260 -2 410 -39 78 -20 184 -52 217 -67 17
-8 34 -14 38 -14 14 0 136 -63 143 -74 8 -13 12 -36 6 -36 -2 0 -41 20 -86 44
-91 49 -289 118 -383 135 -66 11 -187 17 -525 26 -353 10 -395 17 -572 105
-166 83 -382 237 -522 373 -32 31 -63 57 -68 57 -34 0 38 -80 158 -176 33 -27
81 -65 105 -85 125 -103 338 -223 464 -262 84 -26 152 -34 380 -42 409 -14
511 -18 525 -17 24 0 128 -27 224 -60 131 -43 317 -140 302 -156 -3 -2 -11 0
-18 5 -29 23 -110 63 -177 87 -119 43 -283 74 -537 101 -78 8 -149 17 -157 21
-16 6 -33 -11 -19 -20 11 -6 53 -14 117 -22 241 -27 439 -63 562 -101 98 -30
226 -100 231 -127 4 -16 0 -16 -30 7 -88 66 -222 107 -459 142 -92 13 -179 27
-193 31 -33 8 -35 -13 -3 -25 12 -5 96 -19 187 -31 159 -21 302 -55 365 -87
17 -9 54 -31 83 -50 44 -30 52 -40 52 -66 l0 -31 -27 25 c-45 41 -101 79 -136
94 -64 27 -234 64 -332 74 -55 5 -112 13 -127 16 -18 5 -28 3 -28 -3 0 -18 32
-30 96 -36 161 -14 320 -48 387 -82 40 -20 115 -79 144 -113 16 -18 22 -39 23
-71 l0 -45 -25 41 c-57 95 -193 159 -470 219 -33 7 -73 18 -88 24 -36 14 -37
14 -37 -4 0 -21 23 -29 197 -70 168 -40 268 -83 334 -142 53 -48 69 -86 70
-169 1 -54 -4 -76 -31 -130 -25 -52 -109 -168 -140 -194 -3 -3 -57 -61 -120
-130 -110 -120 -209 -217 -264 -261 -29 -23 -34 -39 -11 -39 22 0 189 164 346
340 152 171 191 220 219 278 l19 37 0 -45 c1 -36 -7 -56 -34 -95 -20 -27 -43
-61 -53 -75 -45 -67 -200 -223 -313 -315 -123 -101 -189 -166 -189 -185 0 -20
24 -9 54 24 17 19 90 83 162 143 72 59 148 128 170 153 22 25 56 63 77 85 21
22 59 71 85 109 l47 69 3 -38 c3 -27 -4 -47 -24 -76 -34 -49 -204 -214 -309
-299 -122 -98 -228 -191 -244 -212 -29 -41 1 -27 81 38 46 37 121 99 168 137
47 39 140 124 207 191 l123 120 -4 -44 c-4 -40 -11 -51 -68 -103 -69 -63 -258
-208 -327 -252 -56 -34 -135 -108 -173 -159 -32 -44 -35 -56 -13 -56 8 0 15 5
15 11 0 20 112 128 188 181 107 73 268 198 325 251 l47 44 0 -38 c0 -33 -7
-43 -57 -86 -72 -62 -182 -141 -248 -178 -120 -68 -186 -119 -230 -178 -43
-58 -55 -87 -36 -87 5 0 25 22 45 49 43 61 108 113 218 176 94 55 167 106 251
178 l57 49 0 -34 c0 -25 -7 -39 -33 -59 -43 -34 -164 -112 -266 -171 -46 -27
-108 -70 -139 -96 -52 -44 -142 -154 -142 -173 0 -20 18 -7 61 45 67 80 154
152 239 198 41 23 121 72 178 110 56 37 102 62 102 55 0 -28 -121 -118 -276
-204 -90 -50 -206 -147 -263 -220 -57 -73 -27 -60 59 25 85 85 131 120 269
197 46 26 114 68 151 95 50 36 66 43 63 29 -5 -18 -90 -79 -318 -230 -55 -37
-122 -86 -148 -109 -67 -59 -116 -160 -78 -160 5 0 14 14 21 30 30 72 71 109
247 227 98 66 199 134 224 151 52 36 61 39 53 17 -3 -8 -27 -26 -52 -41 -129
-74 -319 -209 -396 -282 -52 -49 -102 -140 -86 -156 5 -5 11 -8 12 -5 2 2 16
30 32 61 20 42 46 72 95 111 140 113 375 266 388 253 14 -14 -15 -38 -123
-106 -140 -87 -243 -165 -294 -223 -58 -66 -100 -128 -100 -148 0 -25 19 -34
27 -12 13 39 94 142 150 192 56 51 196 148 296 206 l47 27 0 -31 c0 -27 -6
-34 -57 -60 -70 -35 -254 -158 -304 -203 -56 -50 -133 -168 -118 -182 8 -8 13
-8 16 0 12 33 94 137 140 177 59 52 157 118 256 172 l67 37 0 -30 c0 -25 -6
-32 -42 -48 -76 -33 -261 -160 -320 -219 -64 -65 -107 -140 -90 -157 7 -7 17
3 32 32 27 53 98 130 165 180 58 43 234 150 247 150 4 0 8 -10 8 -22 0 -19
-16 -30 -97 -67 -128 -58 -190 -99 -247 -162 -47 -53 -67 -84 -80 -126 -12
-39 12 -26 34 18 12 22 50 69 85 104 50 51 87 75 176 119 63 31 116 56 120 56
4 0 6 -15 4 -32 -2 -25 -9 -36 -31 -47 -104 -50 -232 -130 -274 -172 -53 -53
-85 -103 -75 -119 11 -17 20 -11 40 26 29 55 111 123 220 184 123 69 115 66
115 37 0 -21 -9 -27 -62 -46 -72 -25 -109 -44 -157 -80 -48 -36 -111 -119
-111 -144 1 -20 3 -19 23 8 46 63 108 122 149 142 66 33 148 64 148 55 0 -15
-17 -29 -75 -64 -68 -41 -135 -102 -161 -148 -24 -40 -39 -43 -144 -30 -117
14 -186 44 -234 103 -47 57 -63 109 -82 262 -8 66 -18 149 -23 185 -5 36 -7
81 -5 100 13 151 17 318 17 655 -1 434 -3 459 -68 592 -48 97 -146 188 -215
197 -8 2 -33 11 -55 22 -63 30 -175 26 -249 -10 -55 -27 -59 -27 -123 -16 -96
16 -220 68 -390 161 -159 88 -250 149 -297 198 -32 33 -46 39 -46 18 0 -21
145 -145 213 -183 12 -6 80 -43 152 -82 145 -80 274 -131 353 -139 57 -6 61
-11 33 -37 -18 -17 -23 -17 -78 -1 -76 22 -416 192 -518 260 -44 29 -93 67
-109 84 -31 33 -56 40 -56 18 0 -19 68 -80 148 -133 91 -62 434 -233 505 -253
57 -16 76 -33 45 -39 -22 -4 -199 63 -273 103 -33 18 -100 54 -150 80 -98 53
-174 103 -218 143 -20 20 -30 23 -39 14 -8 -8 -5 -16 13 -32 54 -47 151 -113
211 -144 35 -18 110 -58 168 -89 58 -30 143 -68 190 -83 99 -32 94 -30 86 -43
-7 -11 -186 50 -290 99 -71 33 -293 176 -337 217 -19 17 -29 21 -34 13 -10
-16 33 -59 102 -100 32 -19 80 -52 108 -72 61 -46 202 -116 315 -156 119 -42
121 -43 114 -53 -11 -18 -70 5 -321 128 -106 51 -222 116 -259 144 -58 44 -84
53 -84 31 0 -36 403 -259 580 -322 41 -14 73 -30 70 -36 -6 -11 4 -15 -175 58
-187 76 -305 134 -385 188 -71 48 -94 44 -35 -6 77 -66 181 -118 484 -245 94
-39 123 -60 108 -76 -3 -3 -26 6 -49 20 -42 24 -118 57 -352 153 -60 24 -135
58 -168 76 -32 17 -62 28 -66 24 -12 -13 56 -62 126 -91 37 -15 96 -40 132
-55 36 -16 115 -49 175 -75 61 -26 129 -58 153 -71 l42 -25 0 -119 c0 -72 -4
-120 -10 -120 -16 0 -58 -94 -86 -191 -35 -120 -31 -190 14 -254 37 -53 24
-71 -18 -24 -34 40 -53 99 -52 171 0 69 14 118 62 222 47 100 49 107 33 113
-14 5 -95 -150 -112 -212 -37 -141 -13 -260 65 -330 25 -22 31 -34 24 -45 -8
-12 -15 -9 -44 19 -43 42 -72 108 -87 197 -14 88 4 180 57 291 42 88 44 95 26
101 -15 5 -96 -160 -111 -228 -33 -143 7 -301 98 -383 32 -29 37 -38 26 -47
-18 -15 -41 0 -85 59 -54 72 -70 134 -71 269 -1 120 21 233 57 289 16 26 0 43
-21 22 -26 -28 -67 -192 -72 -287 -7 -150 28 -258 113 -345 37 -38 45 -50 35
-60 -10 -9 -21 -2 -52 33 -75 87 -120 201 -135 347 -8 75 15 185 55 265 33 64
24 89 -14 42 -29 -36 -62 -139 -70 -221 -7 -74 11 -221 34 -283 21 -55 79
-145 117 -183 22 -23 25 -30 14 -37 -19 -12 -22 -9 -72 63 -86 123 -111 185
-128 317 -10 80 -9 108 3 175 9 44 23 97 31 117 19 44 20 58 6 58 -17 0 -50
-88 -68 -178 -24 -125 -8 -253 47 -364 22 -46 61 -110 86 -143 45 -61 52 -75
36 -75 -39 0 -157 211 -186 337 -26 106 -24 233 4 321 13 40 21 75 18 78 -12
13 -26 -9 -48 -74 -31 -91 -31 -234 -1 -350 23 -90 100 -250 140 -294 l26 -28
-25 0 c-38 0 -113 130 -177 310 -12 33 -16 82 -16 180 -1 122 1 139 22 178 13
24 20 47 17 50 -11 11 -44 -36 -57 -81 -18 -60 -15 -248 5 -325 17 -63 101
-246 134 -291 16 -22 16 -23 -1 -20 -21 5 -30 21 -89 154 -62 137 -77 201 -84
337 -3 65 -10 118 -15 118 -20 0 -30 -58 -25 -145 6 -103 51 -254 111 -373 20
-39 36 -74 36 -77 0 -3 -9 -5 -20 -5 -32 0 -85 124 -121 280 -14 62 -25 81
-35 57 -10 -27 23 -159 60 -240 19 -42 32 -77 28 -77 -21 0 -52 34 -52 56 0
24 -30 36 -30 12 -1 -19 -38 29 -65 82 -46 91 -52 132 -60 435 -4 127 -8 241
-10 255 -4 30 -15 941 -20 1620 -4 622 8 742 88 893 35 68 92 121 168 159 59
30 82 32 177 18z m273 -212 c1 -7 0 -17 -1 -23 -2 -5 -7 -39 -12 -75 -8 -61
-6 -69 23 -128 47 -97 33 -122 -16 -27 -36 70 -39 84 -38 150 1 70 14 115 33
115 6 0 11 -6 11 -12z m37 -173 c1 -31 -1 -35 -8 -20 -5 11 -8 40 -8 65 0 37
1 41 8 20 4 -14 8 -43 8 -65z m1385 -208 c48 -22 136 -92 126 -101 -2 -2 -31
-6 -64 -10 -59 -6 -59 -6 -27 8 31 14 39 26 26 38 -3 4 -17 0 -32 -8 -34 -17
-79 -18 -85 -1 -4 9 -7 9 -15 -1 -5 -8 -18 -12 -28 -10 -12 2 -19 -3 -19 -12
0 -11 16 -16 60 -20 l60 -5 -62 -7 c-34 -3 -79 -2 -100 2 -42 10 -48 8 -40
-14 10 -26 74 -29 204 -11 105 14 127 15 134 4 5 -8 9 -16 9 -19 0 -6 -347 -5
-375 1 -33 7 -24 -24 10 -33 44 -11 98 -12 217 -4 111 8 168 2 168 -17 0 -9
-63 -11 -245 -9 -219 3 -245 2 -245 -12 0 -14 23 -16 189 -16 223 0 311 -7
318 -27 9 -23 0 -23 -78 -7 -96 20 -464 14 -464 -8 0 -10 44 -13 220 -13 185
0 229 -3 278 -18 37 -12 57 -24 57 -34 0 -8 -6 -13 -13 -10 -86 33 -466 35
-541 3 -49 -21 -37 -41 14 -25 59 19 336 21 442 4 51 -8 96 -15 101 -15 4 0 7
-14 7 -30 0 -27 -2 -30 -20 -20 -65 35 -284 53 -465 38 -119 -9 -132 -13 -116
-32 8 -10 22 -11 54 -5 72 14 345 10 422 -6 96 -20 125 -33 125 -57 0 -14 -5
-18 -15 -14 -27 10 -187 44 -265 57 -84 13 -268 6 -302 -12 -37 -20 -4 -28 77
-18 92 11 181 5 315 -21 151 -30 184 -42 188 -69 3 -17 0 -22 -10 -19 -154 57
-274 79 -426 77 -111 -2 -154 -9 -159 -26 -4 -10 19 -12 99 -7 134 8 267 -8
395 -49 92 -29 103 -34 103 -56 0 -18 -4 -22 -17 -16 -49 20 -166 56 -233 71
-96 22 -309 25 -333 5 -23 -18 -11 -34 16 -20 28 15 218 5 311 -16 78 -18 205
-59 236 -75 24 -13 29 -55 5 -46 -182 70 -508 125 -577 97 -53 -20 -30 -30 70
-30 53 0 117 -4 142 -9 25 -6 81 -17 126 -26 69 -14 171 -44 237 -71 17 -7 24
-35 8 -35 -5 0 -27 6 -49 14 -37 13 -209 54 -302 71 -19 4 -84 9 -143 12 -99
5 -109 4 -105 -12 2 -15 15 -17 79 -17 42 0 98 -4 125 -9 148 -28 263 -56 357
-86 40 -12 47 -18 47 -40 0 -20 -3 -23 -13 -15 -17 15 -293 90 -392 108 -123
22 -223 15 -233 -15 -4 -11 7 -13 54 -7 76 8 226 -15 358 -55 210 -63 226 -70
226 -89 0 -18 -3 -17 -57 4 -166 64 -534 130 -596 107 -50 -19 -30 -31 56 -32
45 0 102 -4 127 -9 231 -43 289 -57 383 -92 72 -27 87 -36 87 -54 0 -21 0 -21
-81 8 -111 39 -288 84 -383 97 -150 21 -276 13 -276 -19 0 -3 64 -5 143 -6
128 0 154 -4 262 -33 135 -36 315 -97 328 -110 5 -5 7 -16 5 -24 -2 -12 -15
-10 -73 14 -163 65 -461 121 -656 123 l-106 1 24 51 c30 67 39 164 42 453 2
263 12 313 76 402 85 115 345 172 488 106z m-1033 -1052 c68 -20 156 -38 196
-42 41 -3 71 -10 68 -14 -5 -9 -68 -5 -213 12 -147 18 -247 50 -275 90 -25 37
-20 38 43 13 32 -13 114 -40 181 -59z m695 -5 c199 -25 336 -58 478 -115 56
-23 67 -31 67 -51 l0 -24 -52 21 c-29 12 -62 24 -73 27 -11 3 -24 8 -30 12
-11 8 -102 42 -155 58 -94 29 -251 47 -412 47 -93 0 -168 2 -168 4 0 3 6 12
14 20 22 25 138 25 331 1z m-670 -65 c50 -7 110 -11 134 -10 l43 2 -28 -16
c-20 -10 -57 -15 -114 -16 -79 0 -90 3 -147 35 -73 40 -82 54 -20 32 23 -8 83
-20 132 -27z m735 0 c108 -18 217 -46 275 -71 22 -10 76 -32 119 -48 44 -17
82 -37 84 -45 4 -10 0 -12 -14 -6 -246 101 -475 150 -771 162 -84 3 -150 10
-147 15 9 14 351 9 454 -7z m-352 -34 c68 -1 140 -3 160 -5 21 -3 69 -7 107
-11 184 -18 565 -134 565 -173 0 -10 -5 -12 -17 -7 -65 29 -270 100 -330 116
-91 23 -277 40 -453 40 -161 1 -284 12 -255 23 11 4 31 13 45 20 14 7 32 10
40 6 8 -4 71 -8 138 -9z m936 -652 c37 -79 53 -180 37 -238 -11 -43 -73 -176
-91 -194 -20 -22 0 73 23 107 31 45 47 95 47 149 0 43 -33 147 -61 193 -10 17
-19 44 -19 59 l0 28 20 -26 c11 -14 31 -49 44 -78z m-44 -54 c5 -5 14 -38 20
-72 13 -67 3 -135 -26 -177 -12 -18 -14 -3 -13 139 1 88 4 151 6 140 3 -11 9
-24 13 -30z m-1611 -531 c-26 -60 -36 -177 -19 -229 15 -46 0 -70 -23 -34 -37
59 -21 214 36 337 l21 47 4 -36 c2 -21 -6 -55 -19 -85z m8 -161 c-2 -16 -4 -3
-4 27 0 30 2 43 4 28 2 -16 2 -40 0 -55z m1748 -139 c-36 -52 -140 -154 -157
-154 -16 0 -7 21 19 43 70 58 113 100 138 137 15 22 30 38 33 35 3 -3 -12 -30
-33 -61z m-241 -826 c-42 -71 -79 -105 -141 -129 -40 -16 -42 -16 -34 0 13 23
69 74 121 110 48 32 66 39 54 19z"/>
<path d="M1885 3730 c-15 -24 104 -146 245 -251 179 -134 341 -216 528 -266
76 -20 267 -39 317 -32 53 7 29 16 -65 24 -173 13 -248 31 -400 90 -115 45
-202 94 -340 193 -118 84 -175 135 -228 205 -37 49 -46 54 -57 37z"/>
<path d="M1886 3631 c-14 -22 115 -145 231 -220 76 -49 288 -165 363 -199 160
-72 389 -114 420 -77 14 17 11 18 -41 15 -45 -2 -173 22 -261 50 -63 19 -308
139 -366 179 -15 10 -65 42 -111 72 -47 30 -116 84 -153 122 -74 71 -74 72
-82 58z"/>
<path d="M1890 3547 c0 -31 206 -199 356 -290 118 -71 308 -151 411 -172 78
-16 150 -22 159 -13 10 11 -7 30 -22 24 -17 -6 -147 18 -200 38 -114 42 -156
60 -280 126 -76 39 -155 86 -178 104 -23 17 -59 44 -81 59 -23 15 -67 52 -99
82 -62 59 -66 62 -66 42z"/>
<path d="M1876 3461 c-21 -34 222 -208 455 -326 85 -43 346 -126 385 -123 52
4 58 28 7 28 -62 0 -315 87 -412 142 -199 111 -336 203 -390 262 -26 28 -36
32 -45 17z"/>
<path d="M3470 2900 c0 -19 64 -49 140 -66 276 -60 390 -159 346 -300 -31 -98
-158 -263 -375 -486 -73 -76 -111 -123 -108 -132 11 -27 338 325 445 478 44
63 82 151 82 192 0 34 -24 90 -56 127 -26 31 -120 96 -140 97 -6 0 -24 7 -41
15 -17 8 -50 19 -74 24 -66 14 -158 40 -179 51 -24 13 -40 13 -40 0z"/>
<path d="M3480 2806 c0 -30 74 -59 235 -92 82 -16 142 -41 164 -68 7 -8 15
-33 18 -55 10 -72 -50 -167 -216 -346 -31 -33 -72 -78 -91 -100 -20 -22 -55
-61 -79 -87 -54 -60 -45 -86 11 -31 22 21 64 65 92 99 28 33 96 110 151 172
179 197 209 308 107 394 -31 26 -57 35 -217 73 -60 14 -120 32 -132 40 -28 19
-43 19 -43 1z"/>
<path d="M1925 2801 c-9 -15 69 -56 280 -146 107 -46 206 -92 219 -100 14 -9
30 -14 36 -10 27 16 -40 56 -220 130 -36 15 -84 35 -107 46 -24 10 -45 19 -48
19 -3 0 -37 16 -76 35 -80 40 -76 38 -84 26z"/>
<path d="M3482 2738 c8 -24 103 -67 173 -79 68 -11 149 -42 161 -61 14 -22 4
-81 -19 -121 -14 -23 -69 -85 -122 -137 -138 -136 -218 -241 -197 -262 6 -6
19 7 36 37 15 25 89 110 165 189 141 147 171 190 171 248 0 68 -57 108 -186
133 -42 8 -96 26 -121 40 -50 28 -67 31 -61 13z"/>
<path d="M1950 2712 c0 -21 44 -43 175 -87 77 -26 161 -58 187 -71 54 -27 68
-29 68 -11 0 19 -88 60 -230 108 -69 23 -137 48 -152 55 -31 16 -48 18 -48 6z"/>
<path d="M3482 2678 c9 -25 84 -67 138 -78 91 -18 120 -35 120 -70 0 -25 -13
-43 -72 -98 -127 -117 -160 -154 -180 -199 -28 -63 -8 -82 22 -22 13 25 73 94
141 160 106 104 119 120 119 151 0 41 -41 86 -86 94 -62 10 -132 35 -157 54
-28 23 -51 26 -45 8z"/>
<path d="M2010 2630 c0 -19 131 -73 209 -85 34 -6 42 -4 39 6 -3 8 -22 18 -44
22 -21 5 -73 22 -115 38 -83 32 -89 33 -89 19z"/>
<path d="M3470 2614 c0 -15 43 -40 123 -73 49 -20 44 -36 -37 -121 -45 -48
-76 -88 -76 -101 0 -16 22 2 90 73 89 92 105 123 77 146 -20 17 -150 82 -164
82 -7 0 -13 -3 -13 -6z"/>
<path d="M3470 2551 c0 -5 16 -18 35 -30 44 -25 45 -53 5 -83 -16 -12 -30 -25
-30 -30 0 -18 38 -6 64 21 40 41 33 79 -19 108 -44 25 -55 28 -55 14z"/>
<path d="M3470 2501 c0 -6 5 -11 10 -11 6 0 10 -8 8 -17 -2 -11 3 -18 12 -18
9 0 15 9 15 25 0 18 -6 26 -22 28 -13 2 -23 -1 -23 -7z"/>
<path d="M2549 4884 c-11 -31 -4 -95 16 -134 28 -55 131 -115 142 -82 3 6 -1
12 -8 12 -20 0 -79 50 -100 84 -12 20 -19 49 -19 83 0 59 -15 77 -31 37z"/>
<path d="M2610 4824 c0 -34 55 -108 72 -98 5 3 2 14 -6 23 -8 9 -22 33 -31 54
-16 38 -35 50 -35 21z"/>
<path d="M2603 2128 c-20 -22 -33 -48 -38 -76 -6 -40 -5 -45 33 -82 30 -30 48
-40 72 -40 39 0 36 21 -4 31 -42 11 -76 48 -76 80 0 17 12 42 30 62 51 58 36
80 -17 25z"/>
<path d="M2621 2084 c-12 -15 -21 -32 -21 -39 0 -22 37 -47 67 -43 36 4 37 23
0 24 -45 2 -55 20 -24 45 15 11 25 25 22 30 -10 15 -23 10 -44 -17z"/>
<path d="M2657 2073 c-13 -12 -7 -33 8 -33 8 0 15 9 15 20 0 20 -11 26 -23 13z"/>
<path d="M1910 1478 c0 -30 32 -81 65 -104 14 -11 39 -29 55 -41 29 -24 60
-30 60 -13 0 9 -81 75 -100 82 -5 2 -20 23 -33 47 -26 51 -47 64 -47 29z"/>
<path d="M4140 1026 c-77 -45 -160 -123 -160 -151 0 -27 24 -15 55 28 20 27
61 60 115 92 79 48 108 75 78 75 -7 0 -47 -20 -88 -44z"/>
<path d="M4160 982 c-65 -42 -121 -95 -111 -105 6 -6 26 4 58 31 26 22 63 47
81 56 17 9 32 21 32 26 0 15 -32 11 -60 -8z"/>
<path d="M4140 915 c-13 -14 -21 -28 -17 -31 7 -8 67 34 67 47 0 17 -27 9 -50
-16z"/>
</g>
</svg>
